<svg width="42" height="42" viewBox="0 0 42 42" fill="none" xmlns="http://www.w3.org/2000/svg">
<circle opacity="0.1" cx="21" cy="21" r="21" fill="#3F944A"/>
<path d="M30.065 19.3149L30.1597 19.6936H30.55H33.6264V22.8452H30.7174H30.2927L30.224 23.2643C30.0033 24.6096 29.5069 25.8591 28.7947 26.9549L28.5749 27.2931L28.859 27.5795L31.2359 29.9761L29.0291 32.2011L26.6579 29.8104L26.3693 29.5194L26.0273 29.7453C25.023 30.4087 23.8886 30.8868 22.6714 31.1309L22.2697 31.2115V31.6212V35.5H19.1536V31.5831V31.1805L18.7603 31.0946C17.5126 30.8221 16.3565 30.3028 15.342 29.5889L14.9966 29.3459L14.6992 29.6457L12.1648 32.2011L9.958 29.9761L12.5819 27.3305L12.8576 27.0524L12.6538 26.7181C12.0215 25.681 11.5801 24.513 11.3747 23.2641L11.3059 22.8452H10.8814H7.5V19.695H11.0501H11.4409L11.5353 19.3157C11.8405 18.0886 12.3804 16.9556 13.1042 15.9658L13.356 15.6215L13.0556 15.3186L10.3224 12.5628L12.5292 10.3377L15.4172 13.2496L15.6897 13.5243L16.024 13.3295C16.8051 12.8743 17.6549 12.5267 18.5554 12.3085L18.9376 12.2158V11.8225V7.50146H22.0538V11.6946V12.1136L22.4663 12.1869C23.571 12.3833 24.6104 12.7709 25.5503 13.3152L25.8842 13.5086L26.1559 13.2346L29.0291 10.3377L31.2359 12.5628L28.527 15.2941L28.2258 15.5978L28.4791 15.9423C29.2105 16.9373 29.7558 18.0782 30.065 19.3149Z" stroke="#3F944A"/>
<circle cx="21.0309" cy="21.9677" r="6.04775" stroke="#3F944A"/>
</svg>
