<svg width="42" height="42" viewBox="0 0 42 42" fill="none" xmlns="http://www.w3.org/2000/svg">
<circle opacity="0.1" cx="21" cy="21" r="21" fill="#3F944A"/>
<g clip-path="url(#clip0_525_777)">
<path d="M18.625 15.0652C18.625 17.0274 17.0089 18.6304 15 18.6304C12.9911 18.6304 11.375 17.0274 11.375 15.0652C11.375 13.1031 12.9911 11.5 15 11.5C17.0089 11.5 18.625 13.1031 18.625 15.0652Z" stroke="#3F944A"/>
<path d="M23.4851 27.4999H6.51494C6.77756 23.1168 10.4702 19.6304 15 19.6304C19.5298 19.6304 23.2224 23.1168 23.4851 27.4999Z" stroke="#3F944A"/>
</g>
<g clip-path="url(#clip1_525_777)">
<path d="M30.625 18.0652C30.625 20.0274 29.0089 21.6304 27 21.6304C24.9911 21.6304 23.375 20.0274 23.375 18.0652C23.375 16.1031 24.9911 14.5 27 14.5C29.0089 14.5 30.625 16.1031 30.625 18.0652Z" fill="#ECF4ED" stroke="#3F944A"/>
<path d="M35.4851 30.4999H18.5149C18.7776 26.1168 22.4702 22.6304 27 22.6304C31.5298 22.6304 35.2224 26.1168 35.4851 30.4999Z" fill="#ECF4ED" stroke="#3F944A"/>
</g>
<defs>
<clipPath id="clip0_525_777">
<rect width="18" height="17" fill="white" transform="translate(6 11)"/>
</clipPath>
<clipPath id="clip1_525_777">
<rect width="18" height="17" fill="white" transform="translate(18 14)"/>
</clipPath>
</defs>
</svg>
