<svg width="22" height="22" viewBox="0 0 22 22" fill="none" xmlns="http://www.w3.org/2000/svg">
<path d="M11 18.7001L10.648 18.3041C10.428 18.0841 5.28003 12.0121 5.28003 8.36014C5.28003 5.19214 7.83203 2.64014 11 2.64014C14.168 2.64014 16.72 5.19214 16.72 8.36014C16.72 12.0121 11.572 18.0841 11.352 18.3481L11 18.7001ZM11 3.52014C8.31603 3.52014 6.16003 5.67614 6.16003 8.36014C6.16003 11.1761 9.85603 15.9281 11 17.3361C12.144 15.9281 15.84 11.1761 15.84 8.36014C15.84 5.67614 13.684 3.52014 11 3.52014Z" fill="#B0B0B0"/>
<path d="M11 10.5602C9.76799 10.5602 8.79999 9.59216 8.79999 8.36016C8.79999 7.12816 9.76799 6.16016 11 6.16016C12.232 6.16016 13.2 7.12816 13.2 8.36016C13.2 9.59216 12.232 10.5602 11 10.5602ZM11 7.04016C10.252 7.04016 9.67999 7.61216 9.67999 8.36016C9.67999 9.10816 10.252 9.68016 11 9.68016C11.748 9.68016 12.32 9.10816 12.32 8.36016C12.32 7.61216 11.748 7.04016 11 7.04016Z" fill="#B0B0B0"/>
</svg>
