<svg width="12" height="18" viewBox="0 0 12 18" fill="none" xmlns="http://www.w3.org/2000/svg">
<path d="M10.1667 12.1667C11.1667 12.1667 12 11.3611 12 10.3333C12 9.41667 11.3333 8.66667 10.4722 8.52778V2.5C10.4722 1.11111 9.36111 0 7.97222 0H4.02778C2.63889 0 1.52778 1.11111 1.52778 2.5V8.55556C0.666667 8.69444 0 9.44444 0 10.3611C0 11.3611 0.805556 12.1944 1.83333 12.1944H5.72222V15.0278H5C3.55556 15.0278 2.36111 16.2222 2.36111 17.6667H2.91667C2.91667 16.5278 3.86111 15.5833 5 15.5833H5.72222V17.5833H6.27778V15.5833H7C8.13889 15.5833 9.08333 16.5278 9.08333 17.6667H9.63889C9.63889 16.2222 8.44444 15.0278 7 15.0278H6.27778V12.1667H10.1667ZM4.02778 0.555556H7.97222C9.05556 0.555556 9.91667 1.41667 9.91667 2.5V8.52778H2.08333V2.5C2.08333 1.41667 2.97222 0.555556 4.02778 0.555556ZM0.555556 10.3333C0.555556 9.63889 1.13889 9.05556 1.83333 9.05556H10.1667C10.8611 9.05556 11.4444 9.61111 11.4444 10.3333C11.4444 11.0278 10.8611 11.6111 10.1667 11.6111H1.83333C1.13889 11.6111 0.555556 11.0278 0.555556 10.3333Z" fill="#D0D0D0"/>
</svg>
