<svg width="97" height="140" viewBox="0 0 97 140" fill="none" xmlns="http://www.w3.org/2000/svg">
<path opacity="0.3" d="M96.4885 118.945V139.355H0.402588C0.795176 131.348 1.97294 124.154 3.93588 117.773C5.96425 111.393 8.84323 105.664 12.5728 100.586C16.3024 95.5078 20.4246 91.0482 24.9393 87.207C29.4541 83.3008 34.9503 79.2969 41.428 75.1953L45.2558 72.7539C51.7989 68.7174 56.7062 65.3971 59.9778 62.793C63.2494 60.1237 65.9648 57.0312 68.124 53.5156C70.4141 49.6745 71.5592 45.3451 71.5592 40.5273C71.5592 33.9518 69.9234 28.8411 66.6518 25.1953C63.3802 21.5495 58.5383 19.7266 52.126 19.7266C43.4891 19.7266 37.633 22.4609 34.5577 27.9297C31.5479 33.2682 30.1411 39.8112 30.3374 47.5586L5.40808 43.75C5.27722 37.9557 6.12783 32.5195 7.95991 27.4414C9.79198 22.3633 12.5401 17.7409 16.2043 13.5742C19.8684 9.40755 24.8412 6.11979 31.1226 3.71094C37.4694 1.23698 44.7323 0 52.9112 0C66.0629 0 76.5319 3.67839 84.3183 11.0352C92.17 18.3268 96.0959 28.3529 96.0959 41.1133C95.965 45.7357 95.3762 49.9674 94.3293 53.8086C93.2824 57.6497 91.8756 61.0677 90.1089 64.0625C88.4077 67.0573 86.0195 70.0195 82.9442 72.9492C79.8689 75.8789 76.6628 78.5807 73.3258 81.0547C69.9888 83.4635 65.8012 86.2305 60.763 89.3555C53.5001 93.7174 48.1347 97.1354 44.6669 99.6094C41.2645 102.083 38.2546 104.85 35.6374 107.91C32.6275 111.296 30.6646 114.974 29.7485 118.945H96.4885Z" fill="#3F944A"/>
</svg>
