<svg width="98" height="142" viewBox="0 0 98 142" fill="none" xmlns="http://www.w3.org/2000/svg">
<path opacity="0.3" d="M97.2401 99.3164C97.2401 112.793 92.758 123.242 83.794 130.664C74.8953 138.086 63.0849 141.797 48.3629 141.797C33.4446 141.797 21.7651 137.695 13.3244 129.492C4.88378 121.289 0.565313 110.449 0.369019 96.9727L24.415 93.3594C24.2842 102.344 26.3125 109.408 30.5001 114.551C34.6877 119.629 40.642 122.168 48.3629 122.168C56.0184 122.168 61.9726 120.182 66.2256 116.211C70.5441 112.24 72.7033 106.673 72.7033 99.5117C72.7033 92.3503 70.5441 87.0117 66.2256 83.4961C61.9072 79.9154 56.2801 78.125 49.3444 78.125H36.6834V57.3242H46.9888C52.7468 57.3242 57.5887 55.7617 61.5146 52.6367C65.5059 49.5117 67.5016 44.8242 67.5016 38.5742C67.5016 32.5846 65.8331 27.8971 62.4961 24.5117C59.1591 21.0612 54.448 19.3359 48.3629 19.3359C40.2494 19.3359 34.5569 21.9401 31.2853 27.1484C28.1446 31.9661 26.6724 37.8906 26.8687 44.9219L2.13566 41.3086C2.72455 28.7435 7.23931 18.7174 15.6799 11.2305C24.186 3.74349 35.0803 0 48.3629 0C61.1874 0 71.6564 3.38542 79.7699 10.1562C87.9488 16.9271 92.0383 26.3346 92.0383 38.3789C92.0383 44.3034 90.5007 49.6419 87.4254 54.3945C84.3501 59.1471 80.0317 62.9232 74.47 65.7227C81.6674 68.0664 87.2618 72.2982 91.2531 78.418C95.2444 84.4727 97.2401 91.4388 97.2401 99.3164Z" fill="#3F944A"/>
</svg>
