<svg width="48" height="48" viewBox="0 0 48 48" fill="none" xmlns="http://www.w3.org/2000/svg">
<circle cx="24" cy="24" r="24" fill="#242424"/>
<path d="M14.6711 37.7258L14.4926 37.4743L14.1878 37.5209L9.80449 38.1915L14.6831 26.7458L22.1089 29.8848L17.2301 41.3308L14.6711 37.7258Z" stroke="#3F944A"/>
<path d="M33.8067 36.96L33.5014 36.9149L33.3242 37.1676L30.7843 40.7907L25.8429 29.3701L33.2523 26.1898L38.1922 37.6072L33.8067 36.96Z" stroke="#3F944A"/>
<path d="M35.5852 18.9352C35.5852 25.801 29.9956 31.3704 23.096 31.3704C16.1965 31.3704 10.6068 25.801 10.6068 18.9352C10.6068 12.0694 16.1965 6.5 23.096 6.5C29.9956 6.5 35.5852 12.0694 35.5852 18.9352Z" fill="#242424" stroke="#3F944A"/>
</svg>
