<svg width="48" height="48" viewBox="0 0 48 48" fill="none" xmlns="http://www.w3.org/2000/svg">
<circle cx="24" cy="24" r="24" fill="#242424"/>
<path d="M13.8956 20.8469C5.66831 31.0476 12.026 41.4284 19.685 34.82C19.7315 34.7802 19.7853 34.7616 19.8072 34.6985L29.7519 6.68786C29.8154 6.50514 29.6383 6.35719 29.5357 6.51601C23.7318 15.5096 18.8305 14.7277 13.8956 20.8469Z" stroke="#3F944A" stroke-miterlimit="10"/>
<path d="M32.1595 30.516C31.9317 44.2585 20.9541 46.9563 19.4011 36.2688C19.3922 36.2053 19.3641 36.1499 19.386 36.0869L29.238 8.04208C29.3015 7.85936 29.5232 7.88881 29.5002 8.08161C28.2418 19.0871 32.2962 22.2715 32.1581 30.5153L32.1595 30.516Z" stroke="#3F944A" stroke-miterlimit="10"/>
<path d="M19.7392 34.9075C19.7392 34.9075 18.8888 40.2878 13.4374 40.0455" stroke="#3F944A" stroke-miterlimit="10"/>
</svg>
