<svg width="48" height="48" viewBox="0 0 48 48" fill="none" xmlns="http://www.w3.org/2000/svg">
<circle opacity="0.2" cx="24" cy="24" r="24" fill="#3F944A"/>
<path d="M20.0247 9.64225C20.0574 9.15899 20.6894 8.99997 20.947 9.41018L25.9889 17.4404C26.3345 17.9907 26.9951 18.256 27.6253 18.0974L36.8205 15.7837C37.2902 15.6655 37.6367 16.2174 37.3262 16.5892L31.2471 23.8658C30.8305 24.3645 30.7823 25.0747 31.1279 25.6251L36.1698 33.6553C36.4274 34.0655 36.0095 34.5656 35.56 34.3851L26.761 30.8522C26.158 30.61 25.4676 30.7837 25.051 31.2824L18.9719 38.5591C18.6613 38.9308 18.0565 38.6879 18.0893 38.2047L18.7303 28.7446C18.7742 28.0962 18.3957 27.4933 17.7926 27.2512L8.99362 23.7182C8.54414 23.5377 8.5882 22.8875 9.05792 22.7693L18.2531 20.4556C18.8833 20.297 19.3397 19.7507 19.3837 19.1024L20.0247 9.64225Z" stroke="#3F944A"/>
</svg>
