<svg width="48" height="48" viewBox="0 0 48 48" fill="none" xmlns="http://www.w3.org/2000/svg">
<circle cx="24" cy="24" r="24" fill="#242424"/>
<path fill-rule="evenodd" clip-rule="evenodd" d="M14 10.001C14 9.44869 14.4477 9.00098 15 9.00098H32.6464C33.1987 9.00098 33.6464 9.44869 33.6464 10.001V36.4096C33.6464 36.4258 33.6596 36.439 33.6758 36.439C33.6921 36.439 33.7053 36.4522 33.7053 36.4684V39.5294C33.7053 39.7893 33.9159 40 34.1758 40C34.4357 40 34.6464 39.7893 34.6464 39.5294V39V9.00098C34.6464 8.44869 34.1987 8.00098 33.6464 8.00098H14C13.4477 8.00098 13 8.44869 13 9.00098V39C13 39.5523 13.4477 40 14 40H22.8526C23.1288 40 23.3526 39.7762 23.3526 39.5C23.3526 39.2239 23.1288 39 22.8526 39H15C14.4477 39 14 38.5523 14 38V10.001Z" fill="#3F944A"/>
<path fill-rule="evenodd" clip-rule="evenodd" d="M22.9982 24.0897L19.8162 27.2717C19.6209 27.467 19.6209 27.7836 19.8162 27.9788C20.0114 28.1741 20.328 28.1741 20.5233 27.9788L22.8517 25.6504L22.8517 40.0003H23.8517L23.8517 25.6504L26.1801 27.9788C26.3754 28.1741 26.692 28.1741 26.8873 27.9788C27.0825 27.7836 27.0825 27.467 26.8873 27.2717L23.7053 24.0897C23.51 23.8945 23.1934 23.8945 22.9982 24.0897Z" fill="#3F944A"/>
</svg>
