<svg width="48" height="48" viewBox="0 0 48 48" fill="none" xmlns="http://www.w3.org/2000/svg">
<circle cx="24" cy="24" r="24" fill="#242424"/>
<path d="M13.6026 21.9368C13.795 21.6035 14.2762 21.6035 14.4686 21.9368L20.5616 32.4902C20.754 32.8235 20.5135 33.2402 20.1286 33.2402H7.94259C7.55769 33.2402 7.31713 32.8235 7.50958 32.4902L13.6026 21.9368Z" stroke="#3F944A"/>
<path d="M23.0684 25.3212C23.2608 25.6545 23.742 25.6545 23.9344 25.3212L30.0274 14.7678C30.2199 14.4345 29.9793 14.0178 29.5944 14.0178H17.4084C17.0235 14.0178 16.7829 14.4345 16.9754 14.7678L23.0684 25.3212Z" stroke="#3F944A"/>
<path d="M32.5341 21.9368C32.7265 21.6035 33.2077 21.6035 33.4001 21.9368L39.4931 32.4902C39.6856 32.8235 39.445 33.2402 39.0601 33.2402H26.8741C26.4892 33.2402 26.2486 32.8235 26.4411 32.4902L32.5341 21.9368Z" stroke="#3F944A"/>
</svg>
