<svg width="41" height="41" viewBox="0 0 41 41" fill="none" xmlns="http://www.w3.org/2000/svg">
<circle cx="20.5" cy="20.811" r="20" fill="white"/>
<path d="M30.1371 27.5258C30.3925 27.7812 30.536 28.1275 30.536 28.4887C30.536 28.8498 30.3925 29.1962 30.1371 29.4516C29.8817 29.7069 29.5354 29.8504 29.1742 29.8504C28.8131 29.8504 28.4667 29.7069 28.2113 29.4516L21.0191 22.2571L13.8246 29.4493C13.5692 29.7047 13.2229 29.8481 12.8617 29.8481C12.5006 29.8481 12.1542 29.7047 11.8988 29.4493C11.6435 29.1939 11.5 28.8476 11.5 28.4864C11.5 28.1252 11.6435 27.7789 11.8988 27.5235L19.0933 20.3313L11.9011 13.1368C11.6457 12.8814 11.5023 12.5351 11.5023 12.1739C11.5023 11.8127 11.6457 11.4664 11.9011 11.211C12.1565 10.9556 12.5028 10.8122 12.864 10.8122C13.2252 10.8122 13.5715 10.9556 13.8269 11.211L21.0191 18.4055L28.2136 11.2099C28.469 10.9545 28.8153 10.811 29.1765 10.811C29.5376 10.811 29.884 10.9545 30.1394 11.2099C30.3948 11.4653 30.5382 11.8116 30.5382 12.1728C30.5382 12.5339 30.3948 12.8803 30.1394 13.1357L22.9449 20.3313L30.1371 27.5258Z" fill="#454545"/>
</svg>
