<svg width="147" height="317" viewBox="0 0 147 317" fill="none" xmlns="http://www.w3.org/2000/svg">
<g opacity="0.1">
<path d="M18.7498 130.257L83.4986 181.373V264.017H18.7498V130.257ZM0 401.756H18.7498V284.963H83.4986V301.049H102.27V172.413L0.0213597 91.6753V401.732L0 401.756Z" fill="white"/>
<path d="M168.83 287.318H150.08V380.638H116.852V401.585L168.83 401.442V287.342V287.318Z" fill="white"/>
<path d="M150.055 233.824H168.804V0L53.8711 82.0956V114.29L72.6209 129.113V92.6048L150.033 37.3184V233.847L150.055 233.824Z" fill="white"/>
<path d="M258.217 271.044V380.64H202.16V317.346H183.41V401.587L276.988 401.444V250.145H135.617V157.635L116.867 172.458V271.092H258.238L258.217 271.044Z" fill="white"/>
</g>
</svg>
