<svg width="14" height="13" viewBox="0 0 14 13" fill="none" xmlns="http://www.w3.org/2000/svg">
<path d="M9.72714 8.67331L9.40485 8.99419C9.40485 8.99419 8.63773 9.75635 6.5446 7.67527C4.45148 5.59419 5.2186 4.83202 5.2186 4.83202L5.42118 4.62944C5.92198 4.13219 5.96943 3.33319 5.53239 2.74952L4.63989 1.55739C4.09873 0.834894 3.05393 0.739269 2.43414 1.35552L1.32206 2.46052C1.01535 2.76652 0.809934 3.16177 0.834726 3.60094C0.898476 4.72506 1.40706 7.1426 4.24323 9.96319C7.25152 12.9538 10.0742 13.0728 11.2281 12.9651C11.5936 12.9311 11.9109 12.7455 12.1666 12.4905L13.1725 11.4904C13.8525 10.8153 13.6612 9.65719 12.7914 9.18473L11.4385 8.44877C10.8676 8.13923 10.1734 8.22989 9.72714 8.67331Z" fill="white"/>
</svg>
