<svg width="78" height="85" viewBox="0 0 78 85" fill="none" xmlns="http://www.w3.org/2000/svg">
<path d="M15.4437 22.7988L28.1713 31.7456V46.2107H15.4437V22.7988ZM11.7581 70.3191H15.4437V49.877H28.1713V52.6924H31.8611V30.1773L11.7623 16.0459V70.3149L11.7581 70.3191Z" fill="white"/>
<path d="M47.8125 25.1757L62.4794 14.9067L62.5172 15.9912V40.9296H66.207V8.09961L47.8167 20.9797V25.1757H47.8125Z" fill="white"/>
<path d="M44.9454 50.2891H41.2597V66.6227H34.728V70.2891L44.9454 70.264V50.2932V50.2891Z" fill="white"/>
<path d="M23.6585 59.2071H38.3884V55.5449H19.9729V70.2894H25.304V66.6273H23.6627V59.2112L23.6585 59.2071Z" fill="white"/>
<path d="M41.2555 40.926H44.9412V0L22.3489 14.3691V20.0042L26.0345 22.5985V16.2086L41.2513 6.53181V40.9301L41.2555 40.926Z" fill="white"/>
<path d="M62.5171 47.4407V66.6231H51.498V55.5449H47.8124V70.2895L66.2069 70.2644V43.7827H38.4178V27.5908L34.7322 30.1852V47.449H62.5213L62.5171 47.4407Z" fill="white"/>
<path d="M28.1711 70.2851H31.861V62.0557H28.1711V70.2851Z" fill="white"/>
<path d="M3.11473 81.9395L3.24066 82.4692H3.27425L3.40018 81.9437L5.2136 75.2617H6.51491L3.84933 83.9249H2.66137L0 75.2617H1.29291L3.10633 81.9395H3.11473Z" fill="white"/>
<path d="M15.3262 79.9077H12.3668V83.0151H15.8509V83.9327H11.1494V75.2695H15.8215V76.1955H12.3668V78.9859H15.3262V79.9077Z" fill="white"/>
<path d="M26.6054 83.9285H25.3838L22.0046 77.5386L21.9669 77.5511V83.9327H20.7495V75.2695H21.9669L25.346 81.6428H25.3838V75.2695H26.6054V83.9327V83.9285Z" fill="white"/>
<path d="M36.9947 76.1916H34.6818V83.9288H33.4602V76.1916H31.1641V75.2656H36.9905V76.1916H36.9947Z" fill="white"/>
<path d="M47.4221 75.2662V80.9971C47.4221 81.9565 47.1493 82.7072 46.6078 83.2453C46.0663 83.7834 45.361 84.0545 44.4921 84.0545C43.6232 84.0545 42.9515 83.7834 42.4184 83.2411C41.8853 82.6989 41.6208 81.9523 41.6208 80.993V75.262H42.834V80.993C42.834 81.6645 42.9851 82.19 43.2916 82.5654C43.598 82.945 43.9968 83.1327 44.4921 83.1327C44.9874 83.1327 45.4156 82.945 45.7304 82.5654C46.0453 82.19 46.2006 81.6645 46.2006 80.9888V75.2578H47.4221V75.2662Z" fill="white"/>
<path d="M53.8699 79.2747H55.1628C55.6665 79.2747 56.0359 79.1412 56.2752 78.8784C56.5145 78.6157 56.6362 78.2403 56.6362 77.7564C56.6362 77.2726 56.5187 76.8763 56.2836 76.6011C56.0485 76.3299 55.6959 76.1923 55.2215 76.1923H53.8699V79.2747ZM53.8699 80.1965V83.9295H52.6525V75.2705H55.2215C56.0611 75.2705 56.7076 75.4832 57.1651 75.9087C57.6227 76.3341 57.8493 76.9431 57.8493 77.7356C57.8493 78.186 57.7444 78.5823 57.5303 78.9201C57.3162 79.258 57.0098 79.5249 56.611 79.7085C57.056 79.8586 57.3792 80.1089 57.5765 80.4592C57.7738 80.8096 57.8745 81.2392 57.8745 81.7564V82.5114C57.8745 82.7783 57.8997 83.0244 57.9501 83.2538C58.0005 83.4832 58.0928 83.6626 58.2271 83.7877V83.9254H56.9762C56.8419 83.7961 56.7495 83.5958 56.7075 83.3247C56.6656 83.0578 56.6446 82.7783 56.6446 82.4947V81.7648C56.6446 81.2809 56.5312 80.8972 56.3046 80.6177C56.0779 80.3341 55.7673 80.1965 55.3685 80.1965H53.8657H53.8699Z" fill="white"/>
<path d="M67.332 79.9087H64.3726V83.0161H67.8568V83.9337H63.1553V75.2705H67.8274V76.1965H64.3726V78.9869H67.332V79.9087Z" fill="white"/>
<path d="M76.735 81.7519C76.735 81.3557 76.6217 81.0304 76.395 80.7718C76.1683 80.5173 75.7653 80.2837 75.1903 80.071C74.3717 79.8166 73.742 79.4913 73.3055 79.0908C72.8647 78.6904 72.6464 78.1565 72.6464 77.4892C72.6464 76.8218 72.8899 76.242 73.3726 75.7999C73.8596 75.3578 74.4808 75.1367 75.2364 75.1367C76.0424 75.1367 76.6888 75.3828 77.1758 75.875C77.6627 76.3672 77.8978 76.9845 77.881 77.7269L77.8684 77.7645H76.7014C76.7014 77.2556 76.5671 76.8468 76.2943 76.534C76.0214 76.2212 75.6646 76.0627 75.2238 76.0627C74.7831 76.0627 74.4598 76.1962 74.2206 76.4673C73.9813 76.7384 73.8638 77.0721 73.8638 77.4808C73.8638 77.8562 73.9897 78.169 74.2416 78.4151C74.4934 78.6612 74.9174 78.8948 75.5093 79.1117C76.3027 79.3703 76.9071 79.7081 77.3227 80.1253C77.7383 80.5424 77.944 81.0804 77.944 81.7436C77.944 82.4485 77.7005 83.0116 77.2094 83.4329C76.7182 83.85 76.0802 84.0627 75.2826 84.0627C74.485 84.0627 73.847 83.8375 73.2803 83.3828C72.7136 82.9323 72.4407 82.2817 72.4575 81.4349L72.4701 81.3974H73.6455C73.6455 81.9855 73.8008 82.4235 74.1156 82.7113C74.4305 82.9991 74.8167 83.1451 75.2826 83.1451C75.7486 83.1451 76.0886 83.0199 76.3404 82.7655C76.5965 82.5152 76.7266 82.1774 76.7266 81.7519" fill="white"/>
</svg>
